<svg width="67" height="71" viewBox="0 0 67 71" version="1.1" xmlns="http://www.w3.org/2000/svg" xmlns:xlink="http://www.w3.org/1999/xlink">
<title>audience</title>
<desc>Created using Figma</desc>
<g id="Canvas" transform="translate(-1882 -558)">
<g id="audience">
<g id="Shape">
<use xlink:href="#path0_fill" transform="translate(1882 609)" fill="#2C2C2C"/>
</g>
<g id="Shape">
<use xlink:href="#path1_fill" transform="translate(1886 596)" fill="#2C2C2C"/>
</g>
<g id="Shape">
<use xlink:href="#path2_fill" transform="translate(1906 609)" fill="#2C2C2C"/>
</g>
<g id="Shape">
<use xlink:href="#path3_fill" transform="translate(1909 596)" fill="#2C2C2C"/>
</g>
<g id="Shape">
<use xlink:href="#path4_fill" transform="translate(1930 609)" fill="#2C2C2C"/>
</g>
<g id="Shape">
<use xlink:href="#path5_fill" transform="translate(1933 596)" fill="#2C2C2C"/>
</g>
<g id="Shape">
<use xlink:href="#path6_fill" transform="translate(1882 572)" fill="#2C2C2C"/>
</g>
<g id="Shape">
<use xlink:href="#path7_fill" transform="translate(1886 558)" fill="#2C2C2C"/>
</g>
<g id="Shape">
<use xlink:href="#path8_fill" transform="translate(1906 572)" fill="#2C2C2C"/>
</g>
<g id="Shape">
<use xlink:href="#path7_fill" transform="translate(1909 558)" fill="#2C2C2C"/>
</g>
<g id="Shape">
<use xlink:href="#path9_fill" transform="translate(1930 572)" fill="#2C2C2C"/>
</g>
<g id="Shape">
<use xlink:href="#path10_fill" transform="translate(1933 558)" fill="#2C2C2C"/>
</g>
</g>
</g>
<defs>
<path id="path0_fill" d="M 9.50028 0C 4.3286 0 0 4.35438 0 9.70654L 0 18.5321C 0 19.3426 0.745537 19.9994 1.52879 19.9994L 17.5069 20C 17.883 20 18.2814 19.8456 18.5471 19.5701C 18.8131 19.2948 19 18.9218 19 18.5327L 19 9.70654C 19 4.35438 14.6717 0 9.50028 0Z"/>
<path id="path1_fill" d="M 6.50029 13C 10.0844 12.9997 13 10.0838 13 6.49956C 13 2.91566 10.0841 0 6.5 0C 2.91589 0 0 2.91566 0 6.49956C 1.04124e-15 10.0838 2.91589 13 6.50029 13Z"/>
<path id="path2_fill" d="M 9.50029 0C 4.25024 0 0 4.35438 0 9.70654L 0 18.5321C 0 19.3426 0.703288 19.9994 1.49841 19.9994L 17.6919 20C 18.0736 20 18.3739 19.8456 18.6439 19.5701C 18.9142 19.2948 19 18.9218 19 18.5327L 19 9.70654C 19 4.35438 14.75 0 9.50029 0Z"/>
<path id="path3_fill" d="M 6.50029 13C 10.0844 12.9997 13 10.0838 13 6.49956C 13 2.91566 10.0841 0 6.5 0C 2.91618 0 0 2.91566 0 6.49956C 0 10.0838 2.91589 13 6.50029 13C 6.5 13 6.5 13 6.50029 13Z"/>
<path id="path4_fill" d="M 9.50028 0C 4.3286 0 0 4.35438 0 9.70654L 0 18.5321C 0 19.3426 0.738164 19.9994 1.52142 19.9994L 17.4959 20C 17.8719 20 18.2757 19.8456 18.5417 19.5701C 18.808 19.2948 19 18.9218 19 18.5327L 19 9.70654C 19 4.35438 14.6717 0 9.50028 0Z"/>
<path id="path5_fill" d="M 6.50029 13C 10.0844 12.9997 13 10.0838 13 6.49956C 13 2.91566 10.0841 0 6.5 0C 2.91589 0 0 2.91566 0 6.49956C 0.000293083 10.0838 2.91618 13 6.50029 13C 6.5 13 6.5 13 6.50029 13Z"/>
<path id="path6_fill" d="M 9.50028 0C 4.3286 0 0 4.35438 0 9.70654L 0 18.5321C 0 19.3426 0.745537 19.9994 1.52879 19.9994L 17.5069 20C 17.883 20 18.2814 19.8456 18.5471 19.5701C 18.8131 19.2948 19 18.9218 19 18.5327L 19 9.70654C 19 4.35409 14.6717 0 9.50028 0Z"/>
<path id="path7_fill" d="M 6.5 13C 10.0841 12.9997 13 10.0837 13 6.49941C 13 2.91572 10.0838 0 6.5 0C 2.91618 0 0 2.91572 0 6.49971C 0 10.084 2.91589 13 6.5 13Z"/>
<path id="path8_fill" d="M 9.50029 0C 4.25024 0 0 4.35438 0 9.70654L 0 18.5321C 0 19.3426 0.703288 19.9994 1.49841 19.9994L 17.6919 20C 18.0736 20 18.3739 19.8456 18.6439 19.5701C 18.9142 19.2948 19 18.9218 19 18.5327L 19 9.70654C 19 4.35409 14.75 0 9.50029 0Z"/>
<path id="path9_fill" fill-rule="evenodd" d="M 0 9.70654C 0 4.35437 4.32861 0 9.50024 0C 14.6716 0 19 4.35406 19 9.70654L 19 18.5327C 19 18.9218 18.808 19.2948 18.5417 19.5701C 18.2758 19.8456 17.8719 20 17.4958 20L 1.52136 19.9994C 0.738159 19.9994 0 19.3427 0 18.5321L 0 9.70654ZM 2.83582 17.0648L 16.1642 17.0654L 16.1642 9.70654C 16.1642 5.97253 13.1083 2.93463 9.50024 2.93463C 5.89197 2.93463 2.83582 5.97223 2.83582 9.70654L 2.83582 17.0648Z"/>
<path id="path10_fill" fill-rule="evenodd" d="M 13 6.49939C 13 10.0837 10.0841 12.9997 6.5 13C 2.91614 13 0.000244141 10.084 0 6.49969C 0 2.91571 2.91589 0 6.5 0C 10.0841 0 13 2.91571 13 6.49939ZM 10.0691 6.49969C 10.0691 4.53186 8.46802 2.93097 6.5 2.93097C 4.53186 2.93097 2.93103 4.53186 2.93079 6.49969C 2.93079 8.46814 4.53186 10.0693 6.5 10.0693C 8.46802 10.069 10.0691 8.46783 10.0691 6.49969Z"/>
</defs>
</svg>
