<svg width="85" height="81" viewBox="0 0 85 81" version="1.1" xmlns="http://www.w3.org/2000/svg" xmlns:xlink="http://www.w3.org/1999/xlink">
<title>business-affiliate-network</title>
<desc>Created using Figma</desc>
<g id="Canvas" transform="translate(-2452 -558)">
<g id="business-affiliate-network">
<g id="Shape">
<use xlink:href="#path0_fill" transform="translate(2464 569)" fill="#2C2C2C"/>
</g>
<g id="Shape">
<use xlink:href="#path1_fill" transform="translate(2502 558)" fill="#2C2C2C"/>
</g>
<g id="Shape">
<use xlink:href="#path2_fill" transform="translate(2513 594)" fill="#2C2C2C"/>
</g>
<g id="Shape">
<use xlink:href="#path3_fill" transform="translate(2495 615)" fill="#2C2C2C"/>
</g>
<g id="Shape">
<use xlink:href="#path4_fill" transform="translate(2452 602)" fill="#2C2C2C"/>
</g>
<g id="Oval">
<use xlink:href="#path5_fill" transform="translate(2482 585)" fill="#2C2C2C"/>
</g>
</g>
</g>
<defs>
<path id="path0_fill" class="grrey" d="M 19 16.1929L 13.9717 11.3152C 14.5573 10.223 14.9197 8.98641 14.9197 7.65235C 14.9197 3.42451 11.5833 0 7.46246 0C 3.34166 0 0 3.42271 0 7.65235C 0 11.882 3.34166 15.3083 7.46246 15.3083C 8.91521 15.3083 10.2589 14.8642 11.4056 14.1277L 16.4269 19C 17.1867 17.9692 18.0432 17.0251 19 16.1929Z"/>
<path id="path1_fill" d="M 3.31613 26L 10.1965 14.6842C 10.8739 14.8736 11.5766 15.0099 12.3137 15.0099C 16.5643 15.0099 20 11.6504 20 7.50317C 20 3.35775 16.5643 0 12.3137 0C 8.07027 0 4.63642 3.35598 4.63642 7.50317C 4.63642 9.56171 5.48583 11.422 6.85864 12.7796L 0 24.0636C 1.17903 24.5857 2.29104 25.2371 3.31613 26Z"/>
<path id="path2_fill" d="M 16.5709 0C 13.3735 0 10.6651 2.05084 9.61508 4.91035L 0.362866 3.98844C 0.362866 4.05922 0.373384 4.12646 0.373384 4.19547C 0.373384 5.41288 0.240158 6.60198 0 7.75038L 9.2487 8.67229C 9.8079 12.2537 12.8633 15 16.5709 15C 20.6764 15 24 11.645 24 7.50088C 24 3.3585 20.6764 0 16.5709 0Z"/>
<path id="path3_fill" d="M 7.72904 9.0848L 5.64202 0C 4.46409 0.408781 3.23841 0.70127 1.95967 0.847515L 4.05023 9.93407C 1.6537 11.1833 0 13.6519 0 16.5345C 0 20.661 3.35338 24 7.50442 24C 11.6466 24 15 20.6593 15 16.5345C 15.0053 12.4837 11.7651 9.20461 7.72904 9.0848Z"/>
<path id="path4_fill" d="M 25.7687 0L 13.9765 4.02193C 12.616 1.90589 10.2737 0.502513 7.60839 0.502513C 3.40304 0.502513 0 3.96894 0 8.24852C 0 12.5336 3.40304 16 7.60839 16C 11.8101 16 15.2222 12.5336 15.2222 8.24852C 15.2222 8.06944 15.1845 7.90498 15.1701 7.72956L 27 3.69667C 26.4669 2.52535 26.0433 1.29191 25.7687 0Z"/>
<path id="path5_fill" d="M 13 26C 20.1797 26 26 20.1797 26 13C 26 5.8203 20.1797 0 13 0C 5.8203 0 0 5.8203 0 13C 0 20.1797 5.8203 26 13 26Z"/>
</defs>
</svg>
