<svg width="88" height="88" viewBox="0 0 88 88" version="1.1" xmlns="http://www.w3.org/2000/svg" xmlns:xlink="http://www.w3.org/1999/xlink">
<title>internet</title>
<desc>Created using Figma</desc>
<g id="Canvas" transform="translate(-2152 -551)">
<g id="internet">
<g id="Shape">
<use xlink:href="#path0_fill" transform="translate(2152 551)" fill="#2C2C2C"/>
</g>
<g id="Group">
<g id="Shape">
<use xlink:href="#path1_fill" transform="translate(2163.02 587.095)" fill="#FFFFFF"/>
</g>
<g id="Shape">
<use xlink:href="#path2_fill" transform="translate(2186.13 587.095)" fill="#FFFFFF"/>
</g>
<g id="Shape">
<use xlink:href="#path3_fill" transform="translate(2209.24 587.095)" fill="#FFFFFF"/>
</g>
</g>
</g>
</g>
<defs>
<path id="path0_fill" d="M 44 0C 19.6994 0 0 19.6993 0 44C 0 68.3007 19.6994 88 44 88C 53.7576 88 62.7714 84.8218 70.068 79.4468C 69.68 79.4207 69.3012 79.2506 69.0209 78.9375L 61.8142 70.8838L 57.9331 76.8404L 54.7285 60.6501L 71.2095 65.7769L 64.1154 68.8247L 71.3221 76.8787C 71.6564 77.2519 71.7699 77.742 71.682 78.1987C 81.6359 70.132 88 57.8102 88 43.9998C 88 19.6993 68.3006 0 44 0Z"/>
<path id="path1_fill" d="M 5.48658 10.1637L 5.88905 12.3668L 5.93367 12.3815L 6.42573 10.1637L 9.67581 0L 11.9121 0L 15.1624 10.1637L 15.6843 12.5725L 15.7289 12.5725L 16.2358 10.1637L 18.8449 0L 21.5883 0L 16.9068 15.8919L 14.6703 15.8919L 11.4799 6.0953L 10.7792 3.26048L 10.7345 3.26048L 10.0636 6.0953L 6.93279 15.8919L 4.68147 15.8919L 0 0L 2.75819 0L 5.48658 10.1637Z"/>
<path id="path2_fill" d="M 5.48694 10.1637L 5.88941 12.3668L 5.93403 12.3815L 6.42609 10.1637L 9.67617 0L 11.9127 0L 15.1629 10.1637L 15.6844 12.5725L 15.7294 12.5725L 16.2363 10.1637L 18.8455 0L 21.5885 0L 16.9072 15.8919L 14.6707 15.8919L 11.48 6.0953L 10.7793 3.26048L 10.7347 3.26048L 10.0636 6.0953L 6.93279 15.8919L 4.68147 15.8919L 0 0L 2.75819 0L 5.48694 10.1637Z"/>
<path id="path3_fill" d="M 5.4864 10.1637L 5.88887 12.3668L 5.93367 12.3815L 6.42573 10.1637L 9.67599 0L 11.9123 0L 15.1626 10.1637L 15.6843 12.5725L 15.7291 12.5725L 16.2359 10.1637L 18.8451 0L 21.5883 0L 16.907 15.8919L 14.6707 15.8919L 11.48 6.0953L 10.7793 3.26048L 10.7345 3.26048L 10.0636 6.0953L 6.93261 15.8919L 4.68147 15.8919L 0 0L 2.75819 0L 5.4864 10.1637Z"/>
</defs>
</svg>
